<svg id="Layer_1" enable-background="new 0 0 512 512" height="512" viewBox="0 0 512 512" width="512" xmlns="http://www.w3.org/2000/svg"><g><g><g><g><g><g id="XMLID_1761_"><g id="XMLID_1762_"><g id="XMLID_1763_"><g id="XMLID_1764_"><g id="XMLID_1765_"><g id="XMLID_1766_"><g id="XMLID_1767_"><g id="XMLID_1768_"><g id="XMLID_1769_"><g id="XMLID_1770_"><g id="XMLID_1771_"><g id="XMLID_1772_"><g id="XMLID_1773_"><g id="XMLID_1774_"><g id="XMLID_1775_"><circle cx="256" cy="256" fill="#f9d68f" r="256"/></g></g></g></g></g></g></g></g></g></g></g></g></g></g></g></g></g></g></g><path d="m512 256c0-3.596-.094-7.169-.24-10.729l-104.223-104.223s-14.846 12.143-40.186 28.869l-111.351-110.556-28.022 154.479-139.208 159.431 136.937 136.937c9.937 1.171 20.042 1.792 30.293 1.792 141.385 0 256-114.615 256-256z" fill="#e0af58"/><g><g><g><path d="m103.796 140.357s3.97 121.711 44.089 193.848c40.118 72.137 108.115 67.453 108.115 67.453s35.686-62.628-4.433-134.765c-40.118-72.137-147.771-126.536-147.771-126.536z" fill="#00a763"/><path d="m407.537 141.048s-3.303 121.019-43.421 193.156c-40.119 72.138-108.116 67.454-108.116 67.454s-35.686-62.628 4.433-134.765c40.118-72.137 147.104-125.845 147.104-125.845z" fill="#23771b"/></g></g><path d="m256 401.658s-43.534-159.205-228.105-141.949c-.001 0 35.242 199.416 228.105 141.949z" fill="#57c126"/><path d="m256 401.658s43.534-159.205 228.105-141.949c0 0-35.242 199.416-228.105 141.949z" fill="#00a763"/><path d="m256 59.361s-63.537 114.784-63.537 209.552 63.537 132.745 63.537 132.745 63.537-37.977 63.537-132.745-63.537-209.552-63.537-209.552z" fill="#9bda05"/><path d="m319.537 268.918c0 94.763-63.537 132.738-63.537 132.738v-342.296s63.537 114.784 63.537 209.558z" fill="#57c126"/></g></g></svg>